<?xml version="1.0" standalone="no"?>
<!DOCTYPE svg PUBLIC "-//W3C//DTD SVG 20010904//EN"
 "http://www.w3.org/TR/2001/REC-SVG-20010904/DTD/svg10.dtd">
<svg version="1.0" xmlns="http://www.w3.org/2000/svg"
 width="552.000000pt" height="552.000000pt" viewBox="0 0 552.000000 552.000000"
 preserveAspectRatio="xMidYMid meet">
<metadata>
Created by potrace 1.14, written by Peter Selinger 2001-2017
</metadata>
<g transform="translate(0.000000,552.000000) scale(0.100000,-0.100000)"
fill="#000000" stroke="none">
<path d="M2375 5441 c-71 -10 -143 -21 -160 -24 -16 -4 -45 -9 -64 -12 -18 -3
-77 -17 -130 -31 -53 -14 -103 -27 -111 -29 -8 -2 -42 -13 -75 -25 -67 -24
-89 -31 -92 -31 -20 3 -330 -149 -430 -210 -36 -21 -69 -39 -74 -39 -5 0 -9
-4 -9 -10 0 -5 -5 -10 -10 -10 -6 0 -16 -5 -23 -11 -7 -5 -55 -41 -107 -80
-133 -96 -169 -128 -300 -259 -443 -442 -698 -979 -779 -1640 -9 -72 -7 -503
2 -565 3 -16 8 -52 12 -80 8 -62 53 -289 65 -330 16 -54 80 -249 89 -270 61
-146 147 -324 196 -404 6 -9 23 -38 40 -66 16 -27 43 -69 59 -91 17 -23 40
-54 51 -70 11 -15 25 -32 30 -38 6 -6 30 -37 54 -69 24 -31 96 -110 160 -175
100 -102 145 -143 252 -232 103 -85 308 -215 467 -294 176 -89 464 -194 582
-212 19 -3 38 -8 41 -10 10 -6 246 -44 324 -52 39 -4 198 -7 355 -6 218 0 311
4 395 18 129 20 299 54 332 67 13 5 23 7 23 5 0 -4 200 65 319 109 64 23 273
130 360 182 203 123 337 229 516 408 343 342 580 759 700 1233 59 232 78 385
79 642 1 241 -3 308 -29 465 -32 198 -104 451 -180 630 -28 66 -120 248 -149
293 -14 23 -26 44 -26 46 0 16 -164 244 -250 347 -85 104 -297 305 -411 391
-377 284 -759 447 -1229 525 -137 22 -190 26 -445 28 -234 3 -315 0 -420 -14z"/>
</g>
</svg>
