<?xml version="1.0" encoding="utf-8"?>
<!-- Svg Vector Icons : http://www.onlinewebfonts.com/icon -->
<!DOCTYPE svg PUBLIC "-//W3C//DTD SVG 1.1//EN" "http://www.w3.org/Graphics/SVG/1.1/DTD/svg11.dtd">
<svg version="1.1" xmlns="http://www.w3.org/2000/svg" xmlns:xlink="http://www.w3.org/1999/xlink" x="0px" y="0px" viewBox="0 0 1000 1000" enable-background="new 0 0 1000 1000" xml:space="preserve" fill="#fff">
<metadata> Svg Vector Icons : http://www.onlinewebfonts.com/icon </metadata>
<g><g><path d="M893.1,207.7c-73.6-62.6-194.8-90.5-393.1-90.5s-319.6,27.9-393.1,90.5C39,265.4,10,352.8,10,500c0,103,51.5,199.6,145,272c92.3,71.5,214.9,110.8,345,110.8c130.2,0,252.7-39.4,345-110.8c93.5-72.4,145-169,145-272C990,352.8,961,265.4,893.1,207.7z M500,852.2c-253.3,0-459.4-158-459.4-352.2c0-137.2,25.7-217.7,86.1-269c67.7-57.5,182.8-83.2,373.3-83.2c190.5,0,305.7,25.7,373.3,83.2c60.3,51.3,86.1,131.8,86.1,269C959.4,694.2,753.3,852.2,500,852.2z"/><path d="M285.6,423.4c16.9,0,30.6-13.7,30.6-30.6s-13.7-30.6-30.6-30.6S255,375.9,255,392.8S268.7,423.4,285.6,423.4z"/><path d="M714.4,423.4c16.9,0,30.6-13.7,30.6-30.6s-13.7-30.6-30.6-30.6s-30.6,13.7-30.6,30.6S697.5,423.4,714.4,423.4z"/><path d="M454.1,469.4c8.5,0,15.3-6.9,15.3-15.3v-15.3c0-8.5-6.9-15.3-15.3-15.3s-15.3,6.9-15.3,15.3v15.3C438.8,462.5,445.6,469.4,454.1,469.4z"/><path d="M545.9,469.4c8.5,0,15.3-6.9,15.3-15.3v-15.3c0-8.5-6.9-15.3-15.3-15.3s-15.3,6.9-15.3,15.3v15.3C530.6,462.5,537.5,469.4,545.9,469.4z"/><path d="M627.4,630.9c-38.8,19.3-75.4,37.5-127.4,37.5c-52.1,0-88.7-18.2-127.4-37.5c-38.5-19.2-78.4-39-132.9-39c-86,0-111.7,15.1-116,18.1l17.7,25c0,0-0.1,0.1-0.5,0.3c0.2-0.1,22.3-12.8,98.8-12.8c47.3,0,82.2,17.4,119.2,35.8c40.2,20,81.8,40.7,141.1,40.7s100.9-20.7,141.1-40.7c37-18.4,71.9-35.8,119.2-35.8c76.6,0,98.6,12.7,98.8,12.8c-0.3-0.2-0.5-0.3-0.5-0.3l17.7-25c-4.3-3-30-18.1-116-18.1C705.8,591.9,666,611.7,627.4,630.9z"/><path d="M647.4,746.1c-47.8,17.5-91.1,29.2-147.4,29.2s-99.6-11.7-147.4-29.2c-7.9-2.9-16.7,1.2-19.6,9.1s1.2,16.7,9.1,19.6c44,16.1,93.6,31.1,157.9,31.1s113.9-14.9,157.9-31.1c7.9-2.9,12-11.7,9.1-19.6C664.1,747.2,655.3,743.1,647.4,746.1z"/></g><g></g><g></g><g></g><g></g><g></g><g></g><g></g><g></g><g></g><g></g><g></g><g></g><g></g><g></g><g></g></g>
</svg>