<svg width="175" height="38" viewBox="0 0 175 38" fill="none" xmlns="http://www.w3.org/2000/svg">
<path d="M5.576 24.72L0.68 28.176C1.416 29.744 2.44 31.2 3.752 32.544C5.064 33.888 6.6 34.96 8.36 35.76C10.152 36.528 12.072 36.912 14.12 36.912C15.656 36.912 17.112 36.672 18.488 36.192C19.896 35.744 21.16 35.088 22.28 34.224C23.4 33.328 24.28 32.24 24.92 30.96C25.56 29.68 25.88 28.224 25.88 26.592C25.88 25.152 25.64 23.888 25.16 22.8C24.712 21.68 24.072 20.72 23.24 19.92C22.44 19.088 21.528 18.384 20.504 17.808C19.512 17.232 18.472 16.752 17.384 16.368C15.688 15.792 14.28 15.232 13.16 14.688C12.04 14.112 11.208 13.52 10.664 12.912C10.12 12.272 9.848 11.536 9.848 10.704C9.848 9.872 10.184 9.152 10.856 8.544C11.528 7.904 12.536 7.584 13.88 7.584C14.904 7.584 15.816 7.792 16.616 8.208C17.416 8.592 18.12 9.12 18.728 9.792C19.368 10.432 19.912 11.152 20.36 11.952L25.736 8.976C25.16 7.792 24.344 6.656 23.288 5.568C22.264 4.448 20.968 3.536 19.4 2.832C17.864 2.096 16.024 1.728 13.88 1.728C11.8 1.728 9.912 2.112 8.216 2.88C6.552 3.616 5.224 4.688 4.232 6.096C3.272 7.472 2.792 9.12 2.792 11.04C2.792 12.64 3.096 14.016 3.704 15.168C4.312 16.288 5.08 17.248 6.008 18.048C6.936 18.816 7.912 19.456 8.936 19.968C9.992 20.448 10.92 20.832 11.72 21.12C13.224 21.696 14.488 22.24 15.512 22.752C16.568 23.232 17.352 23.792 17.864 24.432C18.408 25.072 18.68 25.92 18.68 26.976C18.68 28.192 18.248 29.152 17.384 29.856C16.52 30.56 15.4 30.912 14.024 30.912C12.84 30.912 11.736 30.656 10.712 30.144C9.688 29.632 8.744 28.912 7.88 27.984C7.048 27.056 6.28 25.968 5.576 24.72ZM28.1161 8.592H37.1401V36H44.0041V8.592H53.0761V2.4H28.1161V8.592ZM56.7361 2.4V24.96C56.7361 26.944 57.0561 28.688 57.6961 30.192C58.3361 31.696 59.2321 32.96 60.3841 33.984C61.5361 35.008 62.8961 35.776 64.4641 36.288C66.0321 36.832 67.7441 37.104 69.6001 37.104C71.4241 37.104 73.1201 36.832 74.6881 36.288C76.2561 35.776 77.6161 35.008 78.7681 33.984C79.9521 32.96 80.8641 31.696 81.5041 30.192C82.1441 28.688 82.4641 26.944 82.4641 24.96V2.4H75.6001V24.528C75.6001 26.448 75.0881 28 74.0641 29.184C73.0721 30.336 71.5841 30.912 69.6001 30.912C67.6161 30.912 66.1121 30.336 65.0881 29.184C64.0961 28 63.6001 26.448 63.6001 24.528V2.4H56.7361ZM94.1165 28.368H111.877L111.061 22.944H94.9325L94.1165 28.368ZM102.901 13.296L107.941 24.96L107.845 26.688L112.165 36H119.941L102.901 0.431997L85.8605 36H93.5885L98.0045 26.4L97.8605 24.864L102.901 13.296ZM131.218 20.352L141.298 36H149.41L138.466 20.352H131.218ZM123.586 2.4V36H130.45V2.4H123.586ZM127.762 8.256H134.434C135.65 8.256 136.69 8.464 137.554 8.88C138.45 9.264 139.138 9.84 139.618 10.608C140.098 11.344 140.338 12.24 140.338 13.296C140.338 14.352 140.098 15.264 139.618 16.032C139.138 16.768 138.45 17.344 137.554 17.76C136.69 18.144 135.65 18.336 134.434 18.336H127.762V23.808H134.866C137.522 23.808 139.778 23.36 141.634 22.464C143.49 21.568 144.914 20.32 145.906 18.72C146.898 17.088 147.394 15.216 147.394 13.104C147.394 10.96 146.898 9.088 145.906 7.488C144.914 5.888 143.49 4.64 141.634 3.744C139.778 2.848 137.522 2.4 134.866 2.4H127.762V8.256ZM149.991 8.592H159.015V36H165.879V8.592H174.951V2.4H149.991V8.592Z" fill="white"/>
</svg>
